# File generated by ImageToStl.com - Free Image and 3D model conversion tools

o obj1
v -70 25 69.99980927
v 20 25 9.99989986
v -70 25 9.99989986
v 20 25 69.99980927
v -90 15.00006104 29.99990082
v -70 15.00006104 19.99979973
v -90 15.00006104 19.99979973
v -70 15.00006104 29.99990082
v 20 15.00006104 29.99990082
v 39.99975586 15.00006104 19.99979973
v 20 15.00006104 19.99979973
v 39.99975586 15.00006104 29.99990082
v -90 15.00006104 59.99990845
v -70 15.00006104 49.999897
v -90 15.00006104 49.999897
v -70 15.00006104 59.99990845
v 20 15.00006104 59.99990845
v 39.99975586 15.00006104 49.999897
v 20 15.00006104 49.999897
v 39.99975586 15.00006104 59.99990845
v -70 4.99993896 9.99979973
v 30 4.99993896 -0.0002
v -80 4.99993896 -0.0002
v 20 4.99993896 9.99979973
v 30 4.99993896 9.99979973
v -80 4.99993896 19.99979973
v -70 4.99993896 19.99979973
v 20 4.99993896 19.99979973
v 39.99975586 4.99993896 9.99979973
v 40 5.00006104 19.99979973
v 40 5.00006104 29.99980164
v 89.99975586 4.99993896 19.99979973
v 60 4.99993896 29.99979782
v 70 4.99993896 29.99979782
v 80 4.99993896 29.99979782
v -80 4.99993896 49.99980164
v -70 4.99993896 29.99979782
v -80 4.99993896 29.99979782
v -70 4.99993896 49.99980164
v 20 4.99993896 49.99980164
v 20 4.99993896 29.99979782
v 39.99975586 4.99993896 49.99980164
v 60 4.99993896 59.99990845
v 70 4.99993896 59.99990845
v 80 4.99993896 59.99990845
v -70 4.99993896 69.99980927
v -70 4.99993896 59.99990845
v -80 4.99993896 59.99990845
v 20 4.99993896 69.99980927
v 40 5.00006104 59.99990082
v 20 4.99993896 59.99990845
v 30 4.99993896 69.99980927
v 89.99975586 4.99993896 69.99980927
v -80 4.99993896 79.99990082
v -70 4.99993896 79.99990082
v 20 4.99993896 79.99990082
v 30 4.99993896 79.99990082
v -70 4.99993896 89.99980927
v 20 4.99993896 89.99980927
v -70 -4.99987793 9.99979973
v 20 -4.99987793 9.99979973
v -70 -4.99987793 19.99979973
v -60.00024414 -4.99987793 19.99979973
v 10 -4.99987793 19.99979973
v 20 -4.99987793 19.99979973
v 30 -4.99987793 9.99979973
v 39.99975586 -4.99987793 9.99979973
v 30 -4.99987793 19.99979973
v 40 -5 19.99979973
v -60.00024414 -4.99987793 29.99979782
v 10 -4.99987793 29.99979782
v 89.99975586 -4.99987793 19.99979973
v 40 -5 29.99980164
v 60 -4.99987793 29.99979782
v 70 -4.99987793 29.99979782
v 80 -4.99987793 29.99979782
v 20 -4.99987793 29.99979782
v -70 -4.99987793 49.99980164
v -70 -4.99987793 29.99979782
v -60.00024414 -4.99987793 49.99980164
v 10 -4.99987793 49.99980164
v 20 -4.99987793 49.99980164
v 30 -4.99987793 29.99979782
v 30 -4.99987793 49.99980164
v 39.99975586 -4.99987793 49.99980164
v -60.00024414 -4.99987793 59.99980164
v 10 -4.99987793 59.99980164
v 60 -4.99987793 59.99980164
v 70 -4.99987793 59.99980164
v 80 -4.99987793 59.99980164
v 20 -4.99987793 59.99980164
v -70 -4.99987793 69.99980927
v -70 -4.99987793 59.99980164
v 20 -4.99987793 69.99980927
v 30 -4.99987793 69.99980927
v 30 -4.99987793 59.99980164
v 40 -4.99987793 59.99980164
v 89.99975586 -4.99987793 69.99980927
v -80 -14.99993896 -0.0002
v 30 -14.99993896 -0.0002
v -70 -14.99993896 9.99979973
v 20 -14.99993896 9.99979973
v -80 -14.99993896 19.99979973
v -70 -14.99993896 19.99979973
v 20 -14.99993896 19.99979973
v 30 -14.99993896 19.99979973
v -80 -14.99993896 29.99979782
v -70 -14.99993896 29.99979782
v -80 -14.99993896 49.99980164
v -70 -14.99993896 49.99980164
v 20 -14.99993896 29.99979782
v 30 -14.99993896 29.99979782
v 20 -14.99993896 49.99980164
v 30 -14.99993896 49.99980164
v -80 -14.99993896 59.99980164
v -70 -14.99993896 59.99980164
v -70 -14.99993896 69.99980927
v 20 -14.99993896 59.99980164
v 30 -14.99993896 59.99980164
v 20 -14.99993896 69.99980927
v -80 -14.99993896 79.99980164
v -70 -14.99993896 79.99980164
v 20 -14.99993896 79.99980164
v 30 -14.99993896 79.99980164
v -70 -14.99993896 89.99980927
v 20 -14.99993896 89.99980927
v -90 -25 19.99979973
v -60.00024414 -25 19.99979973
v -90 -25 29.99979782
v -60.00024414 -25 29.99979782
v 10 -25 19.99979973
v 39.99975586 -25 19.99979973
v 10 -25 29.99979782
v 39.99975586 -25 29.99979782
v -90 -25 49.99980164
v -60.00024414 -25 49.99980164
v -90 -25 59.99980164
v -60.00024414 -25 59.99980164
v 10 -25 49.99980164
v 39.99975586 -25 49.99980164
v 10 -25 59.99980164
v 39.99975586 -25 59.99980164
vn 0 1 0
vn -0 1 -0
vn -0 1 -0
vn -0 1 -1E-05
vn 0 1 0
vn 0 1 0
vn 0 1 0
vn 0 1 0
vn -0 1 0
vn -0 1 0
vn 0 1 0
vn 0 1 0
vn -0 1 0
vn -0 1 1E-05
vn -0 1 0
vn 0 1 1E-05
vn 0 -1 0
vn -0 -1 -0
vn -1E-05 -1 -1E-05
vn 0 -1 0
vn 0 -1 0
vn 0 -1 0
vn 0 -1 0
vn -1E-05 -1 0
vn -0 -1 0
vn 0 -1 0
vn -1 0 0
vn 1 0 0
vn 1 2E-05 0
vn 1 2E-05 0
vn 1 2E-05 -1E-05
vn 1 2E-05 -2E-05
vn 1 0 -2E-05
vn 1 2E-05 -1E-05
vn 1 1E-05 0
vn 1 -0 -1E-05
vn 1 -0 -2E-05
vn 1 -1E-05 0
vn 1 -1E-05 0
vn 1 -1E-05 -1E-05
vn 1 -1E-05 -1E-05
vn 0 0 -1
vn 0 1E-05 -1
vn -0 0 -1
vn -0 0 -1
vn -0 1E-05 -1
vn -0 1E-05 -1
vn -0 0 -1
vn 0 1E-05 -1
vn 0 1E-05 -1
vn 0 1E-05 -1
vn 0 1E-05 -1
vn 0 0 1
vn 0 -0 1
vn 0 -0 1
vn 0 -1E-05 1
vn 0 -1E-05 1
vn 0 -0 1
vn -0 -0 1
vn -0 -1E-05 1
vn -0 -1E-05 1
vn -0 -0 1
vn -0 -0 1
vn -0 -0 1
vn 0 0 1
vn -0 -0 1
vn 0 -0 1
vn -0 -0 1
vn -0 -0 1
vn 0 -0 1
vn 0 -0 1
vn 0 -0 1
vn 0 -0 1
vn 0 -0 1
f 1//1 2//1 3//1
f 4//1 2//1 1//1
f 5//1 6//1 7//1
f 8//1 6//1 5//1
f 9//1 10//1 11//1
f 12//1 10//1 9//1
f 13//1 14//1 15//1
f 16//1 14//1 13//1
f 17//1 18//1 19//1
f 20//1 18//1 17//1
f 21//1 22//1 23//1
f 24//1 22//1 21//1
f 25//1 22//1 24//1
f 26//1 21//1 23//1
f 27//1 21//1 26//1
f 28//2 29//2 25//2
f 28//3 25//3 24//3
f 30//4 29//4 28//4
f 31//5 32//5 30//5
f 33//6 32//6 31//6
f 34//7 32//7 33//7
f 35//8 32//8 34//8
f 36//1 37//1 38//1
f 39//1 37//1 36//1
f 40//9 31//9 41//9
f 42//10 31//10 40//10
f 43//11 34//11 33//11
f 44//12 34//12 43//12
f 45//8 32//8 35//8
f 46//1 47//1 48//1
f 49//13 44//13 43//13
f 49//14 50//14 51//14
f 49//15 45//15 44//15
f 49//16 43//16 50//16
f 52//15 45//15 49//15
f 53//8 32//8 45//8
f 53//1 45//1 52//1
f 54//1 46//1 48//1
f 54//15 52//15 49//15
f 54//15 49//15 46//15
f 55//1 52//1 54//1
f 56//1 52//1 55//1
f 57//1 52//1 56//1
f 58//1 56//1 55//1
f 59//1 56//1 58//1
f 60//17 61//17 62//17
f 62//17 61//17 63//17
f 63//17 61//17 64//17
f 64//17 61//17 65//17
f 66//18 67//18 68//18
f 68//19 67//19 69//19
f 63//17 64//17 70//17
f 70//17 64//17 71//17
f 69//20 72//20 73//20
f 73//21 72//21 74//21
f 74//22 72//22 75//22
f 75//23 72//23 76//23
f 71//17 77//17 78//17
f 79//17 70//17 78//17
f 70//17 71//17 78//17
f 78//17 77//17 80//17
f 80//17 77//17 81//17
f 81//17 77//17 82//17
f 83//24 73//24 84//24
f 84//25 73//25 85//25
f 80//17 81//17 86//17
f 86//17 81//17 87//17
f 74//26 75//26 88//26
f 88//17 75//17 89//17
f 76//23 72//23 90//23
f 87//17 91//17 92//17
f 93//17 86//17 92//17
f 86//17 87//17 92//17
f 92//17 91//17 94//17
f 88//17 89//17 95//17
f 96//17 97//17 95//17
f 89//17 90//17 95//17
f 97//17 88//17 95//17
f 90//23 72//23 98//23
f 95//17 90//17 98//17
f 99//17 100//17 101//17
f 101//17 100//17 102//17
f 99//17 101//17 103//17
f 103//17 101//17 104//17
f 102//17 100//17 105//17
f 105//17 100//17 106//17
f 107//17 108//17 109//17
f 109//17 108//17 110//17
f 111//17 112//17 113//17
f 113//17 112//17 114//17
f 115//17 116//17 117//17
f 118//17 119//17 120//17
f 115//17 117//17 121//17
f 117//17 120//17 121//17
f 121//17 120//17 122//17
f 120//17 119//17 123//17
f 122//17 120//17 123//17
f 123//17 119//17 124//17
f 122//17 123//17 125//17
f 125//17 123//17 126//17
f 127//17 128//17 129//17
f 129//17 128//17 130//17
f 131//17 132//17 133//17
f 133//17 132//17 134//17
f 135//17 136//17 137//17
f 137//17 136//17 138//17
f 139//17 140//17 141//17
f 141//17 140//17 142//17
f 127//27 5//27 7//27
f 129//27 5//27 127//27
f 135//27 13//27 15//27
f 137//27 13//27 135//27
f 99//27 26//27 23//27
f 103//27 26//27 99//27
f 107//27 36//27 38//27
f 109//27 36//27 107//27
f 115//27 54//27 48//27
f 121//27 54//27 115//27
f 6//27 1//27 3//27
f 8//27 1//27 6//27
f 14//27 1//27 8//27
f 16//27 1//27 14//27
f 21//27 6//27 3//27
f 27//27 6//27 21//27
f 37//27 14//27 8//27
f 39//27 14//27 37//27
f 47//27 1//27 16//27
f 46//27 1//27 47//27
f 122//27 58//27 55//27
f 125//27 58//27 122//27
f 131//27 71//27 64//27
f 133//27 71//27 131//27
f 139//27 87//27 81//27
f 141//27 87//27 139//27
f 102//27 65//27 61//27
f 105//27 65//27 102//27
f 111//27 82//27 77//27
f 113//27 82//27 111//27
f 118//27 94//27 91//27
f 120//27 94//27 118//27
f 74//27 43//27 33//27
f 88//27 43//27 74//27
f 76//27 45//27 35//27
f 90//27 45//27 76//27
f 60//28 62//28 101//28
f 101//28 62//28 104//28
f 79//28 78//28 108//28
f 108//28 78//28 110//28
f 93//28 92//28 116//28
f 116//28 92//28 117//28
f 63//28 70//28 128//28
f 128//28 70//28 130//28
f 80//28 86//28 136//28
f 136//28 86//28 138//28
f 2//28 4//28 11//28
f 11//28 4//28 9//28
f 9//28 4//28 19//28
f 19//28 4//28 17//28
f 2//28 11//28 24//28
f 24//28 11//28 28//28
f 9//28 19//28 41//28
f 41//28 19//28 40//28
f 17//28 4//28 51//28
f 51//28 4//28 49//28
f 56//28 59//28 123//28
f 123//28 59//28 126//28
f 22//28 25//28 66//28
f 52//28 57//28 95//28
f 22//28 66//28 100//28
f 66//28 68//28 100//28
f 100//28 68//28 106//28
f 83//28 84//28 112//28
f 112//28 84//28 114//28
f 96//28 95//28 119//28
f 95//28 57//28 124//28
f 119//28 95//28 124//28
f 10//29 12//29 30//29
f 30//30 12//30 31//30
f 18//31 20//31 42//31
f 42//32 20//32 50//32
f 29//33 30//33 67//33
f 67//33 30//33 69//33
f 42//34 50//34 73//34
f 31//35 42//35 73//35
f 73//36 50//36 85//36
f 85//37 50//37 97//37
f 69//38 73//38 132//38
f 132//39 73//39 134//39
f 85//40 97//40 140//40
f 140//41 97//41 142//41
f 34//28 44//28 75//28
f 75//28 44//28 89//28
f 32//28 53//28 72//28
f 72//28 53//28 98//28
f 22//42 99//42 23//42
f 100//42 99//42 22//42
f 2//43 21//43 3//43
f 24//43 21//43 2//43
f 29//42 66//42 25//42
f 67//42 66//42 29//42
f 26//42 127//42 7//42
f 103//42 127//42 26//42
f 6//42 26//42 7//42
f 27//42 26//42 6//42
f 104//42 127//42 103//42
f 63//42 104//42 62//42
f 128//42 127//42 104//42
f 128//42 104//42 63//42
f 65//42 131//42 64//42
f 105//42 131//42 65//42
f 106//42 131//42 105//42
f 10//42 28//42 11//42
f 30//42 28//42 10//42
f 69//42 106//42 68//42
f 132//42 131//42 106//42
f 132//42 106//42 69//42
f 32//42 69//42 30//42
f 72//42 69//42 32//42
f 36//44 135//44 15//44
f 109//45 135//45 36//45
f 14//46 36//46 15//46
f 39//47 36//47 14//47
f 110//48 135//48 109//48
f 80//42 110//42 78//42
f 136//48 135//48 110//48
f 136//42 110//42 80//42
f 82//42 139//42 81//42
f 113//42 139//42 82//42
f 114//42 139//42 113//42
f 18//49 40//49 19//49
f 42//49 40//49 18//49
f 85//42 114//42 84//42
f 140//42 139//42 114//42
f 140//42 114//42 85//42
f 43//50 97//50 50//50
f 88//51 97//51 43//51
f 45//52 89//52 44//52
f 90//52 89//52 45//52
f 94//42 117//42 92//42
f 120//42 117//42 94//42
f 60//53 101//53 61//53
f 61//53 101//53 102//53
f 5//54 129//54 38//54
f 38//55 129//55 107//55
f 5//56 38//56 8//56
f 8//57 38//57 37//57
f 107//58 129//58 108//58
f 79//53 108//53 70//53
f 108//58 129//58 130//58
f 70//53 108//53 130//53
f 71//53 133//53 77//53
f 77//53 133//53 111//53
f 111//59 133//59 112//59
f 9//60 41//60 12//60
f 12//61 41//61 31//61
f 83//62 112//62 73//62
f 112//63 133//63 134//63
f 73//64 112//64 134//64
f 31//65 73//65 33//65
f 33//65 73//65 74//65
f 34//53 75//53 35//53
f 35//53 75//53 76//53
f 13//66 137//66 48//66
f 48//67 137//67 115//67
f 13//68 48//68 16//68
f 16//69 48//69 47//69
f 115//70 137//70 116//70
f 93//53 116//53 86//53
f 116//71 137//71 138//71
f 86//53 116//53 138//53
f 87//53 141//53 91//53
f 91//53 141//53 118//53
f 118//53 141//53 119//53
f 17//72 51//72 20//72
f 20//73 51//73 50//73
f 96//53 119//53 97//53
f 119//53 141//53 142//53
f 97//53 119//53 142//53
f 1//53 46//53 4//53
f 4//53 46//53 49//53
f 52//53 95//53 53//53
f 53//53 95//53 98//53
f 54//74 121//74 55//74
f 55//74 121//74 122//74
f 56//74 123//74 57//74
f 57//74 123//74 124//74
f 58//53 125//53 59//53
f 59//53 125//53 126//53
# Vertices: 142, normals: 74, texture coordinates: 0, faces: 288

