# File produced by Open Asset Import Library (http://www.assimp.sf.net)
# (assimp v5.0.1588609223)

mtllib result.mtl

# 32 vertex positions
v  41410.457 304.57031 43790.863
v  41410.457 44095.43 -43790.863
v  41410.457 304.56641 -43790.863
v  41410.457 44095.434 43790.863
v  45789.543 44095.43 -43790.863
v  45789.543 304.56641 -43790.863
v  45789.543 44095.434 43790.863
v  45789.543 304.57031 43790.863
v  -41990.863 304.57227 -39204.059
v  -41990.863 44095.43 -43583.145
v  -41990.863 304.57227 -43583.145
v  -41990.863 44095.43 -39204.059
v  45590.863 44095.43 -43583.145
v  45590.863 304.57227 -43583.145
v  45590.863 44095.43 -39204.059
v  45590.863 304.57227 -39204.059
v  -42667.918 304.57031 44290.863
v  -42667.918 44095.43 -43290.863
v  -42667.918 304.56641 -43290.863
v  -42667.918 44095.434 44290.863
v  -38288.832 44095.43 -43290.863
v  -38288.832 304.56641 -43290.863
v  -38288.832 44095.434 44290.863
v  -38288.832 304.57031 44290.863
v  -40925.43 304.57227 44439.543
v  -40925.43 44095.43 40060.457
v  -40925.43 304.57227 40060.457
v  -40925.43 44095.43 44439.543
v  44525.43 44095.43 40060.457
v  44525.43 304.57227 40060.457
v  44525.43 44095.43 44439.543
v  44525.43 304.57227 44439.543

# 0 UV coordinates

# 14 vertex normals
vn -2189.5432 0 -0
vn 0 -0.0019141594 -43790.863
vn 2189.5432 0 0
vn 0 0.0019141594 43790.863
vn 0 -21895.432 0.0009570797
vn 0 21895.432 -0.0009570797
vn -43790.863 0 -0
vn 0 -9.5707954e-05 -2189.5427
vn 43790.863 0 0
vn 0 9.5707954e-05 2189.5427
vn 0 -21895.428 0.00095707952
vn 0 21895.428 -0.00095707952
vn -42725.43 0 -0
vn 42725.43 0 0

# Mesh 'Scene' with 12 faces
g Scene
usemtl Black_veined_marble
f  1//1 2//1 3//1
f  1//1 4//1 2//1
f  3//2 5//2 6//2
f  3//2 2//2 5//2
f  6//3 7//3 8//3
f  6//3 5//3 7//3
f  8//4 4//4 1//4
f  8//4 7//4 4//4
f  3//5 8//5 1//5
f  3//5 6//5 8//5
f  5//6 4//6 7//6
f  5//6 2//6 4//6

# Mesh 'Scene' with 12 faces
g Scene
usemtl Black_veined_marble
f  9//7 10//7 11//7
f  9//7 12//7 10//7
f  11//8 13//8 14//8
f  11//8 10//8 13//8
f  14//9 15//9 16//9
f  14//9 13//9 15//9
f  16//10 12//10 9//10
f  16//10 15//10 12//10
f  11//11 16//11 9//11
f  11//11 14//11 16//11
f  13//12 12//12 15//12
f  13//12 10//12 12//12

# Mesh 'Scene' with 12 faces
g Scene
usemtl Black_veined_marble
f  17//1 18//1 19//1
f  17//1 20//1 18//1
f  19//2 21//2 22//2
f  19//2 18//2 21//2
f  22//3 23//3 24//3
f  22//3 21//3 23//3
f  24//4 20//4 17//4
f  24//4 23//4 20//4
f  19//5 24//5 17//5
f  19//5 22//5 24//5
f  21//6 20//6 23//6
f  21//6 18//6 20//6

# Mesh 'Scene' with 12 faces
g Scene
usemtl Black_veined_marble
f  25//13 26//13 27//13
f  25//13 28//13 26//13
f  27//8 29//8 30//8
f  27//8 26//8 29//8
f  30//14 31//14 32//14
f  30//14 29//14 31//14
f  32//10 28//10 25//10
f  32//10 31//10 28//10
f  27//11 32//11 25//11
f  27//11 30//11 32//11
f  29//12 28//12 31//12
f  29//12 26//12 28//12

