<?xml version="1.0" encoding="UTF-8"?>
<svg id="Layer_2" xmlns="http://www.w3.org/2000/svg" viewBox="0 0 462.05 637">
  <defs>
    <radialGradient id="blue-grad" cx="0" cy="0" r="8" gradientUnits="userSpaceOnUse" gradientTransform="translate(83.5 29.5) rotate(55.5816) scale(98.1899 130.602)">
      <stop stop-color="#7BE6C4"/>
      <stop offset="0.6" stop-color="#3B7CCB"/>
      <stop offset="1" stop-color="#AD3DB5"/>
    </radialGradient>
  </defs>
  <style>
    .cls-1 {
      fill: url(#blue-grad);
    }
  </style>
  <g id="Layer_1-2" data-name="Layer_1">
    <g>
      <path class="cls-1" d="M370.93,610.32c15.07-15.14,29.79-29.93,44.68-44.89v-26.69c-9.61,9.59-18.82,18.78-28.01,27.96h-215.51c3.74-3.76,7.75-7.78,12.43-12.5h161.99c14.89-14.98,29.51-29.68,44.32-44.58v-32.58c-3.84,3.15-7.26,5.95-11.09,9.09v-21.97c3.63-3.09,7.42-6.31,11.08-9.41v-15.2c-3.84,3.15-7.27,5.96-11.09,9.09v-21.93c3.41-2.91,7.19-6.13,11.14-9.51v-9.57c-3.79,3.11-7.31,6.02-11.15,9.17v-138.08c3.55-3,7.25-6.13,11.23-9.49v-118.57c4.06-3.92,7.99-7.72,12.04-11.63.91,3.51,1.31,360.49.49,375.52-12.71,12.83-25.71,25.94-39.11,39.47h17.69c9.08-9.11,18.06-18.12,27.53-27.62V5.38c2.82-1.7,5.65-3.4,8.94-5.38v517.1c10.05-10.07,20.13-20.16,30.97-31.02v-11.91c-5.13,3.46-9.03,7.77-14.1,11.2v-21.84c4.61-3.88,9.37-7.88,13.99-11.76v-15.25c-4.81,3.98-9.18,7.59-13.98,11.55v-22.06c4.57-3.84,9.33-7.84,14.1-11.84v-9.64c-4.83,4.01-9.28,7.7-14.11,11.71v-138.12c4.51-3.81,9.18-7.74,14.1-11.89v-31.21c4.51-4.57,8.52-8.63,12.54-12.7v269.46c-11.25,11.27-22.46,22.49-33.65,33.7v44.11c-17.77,18.2-34.87,35.72-51.88,53.15h-12.2c-4.15,4.8-8.29,9.6-12.34,14.28h-137.45c.88-3.07,3.45-4.65,5.04-6.88,1.65-2.32,3.65-4.39,5.85-6.99h-9.66c-3.82,4.49-7.78,9.14-11.78,13.85h-22.05c3.97-4.76,7.58-9.09,11.67-14.01-5.51-.26-10.3-.12-15.12-.11-4.04,4.74-7.99,9.39-12,14.1h-22.03c3.94-4.74,7.54-9.07,11.07-13.32-.22-.35-.26-.47-.34-.53-.09-.08-.21-.16-.33-.18-.37-.05-.74-.1-1.11-.1-50.99-.04-101.99-.07-152.98-.11-.12,0-.24-.07-.76-.25,3.24-4.52,7.26-8.14,11.05-12.15h359.87Z"/>
      <path class="cls-1" d="M221.45,584.11c1.76-2.16,3.25-3.99,4.84-5.94h9.32c-2.64,3.37-5.1,6.53-7.8,9.97,2.51,3.21,5.01,6.41,7.73,9.9h-9.26c-1.33-1.56-2.7-3.16-4.19-4.91h-115.71c-1.79-2.99-3.48-5.82-5.39-9.02h120.47Z"/>
      <path class="cls-1" d="M313.29,578.14h9.46c-2.73,3.46-5.24,6.66-7.88,10.01,2.58,3.28,5.09,6.47,7.83,9.96h-9.44c-2.5-3.1-5.14-6.37-8-9.92,2.69-3.38,5.37-6.73,8.02-10.05Z"/>
      <path class="cls-1" d="M269.79,578.12h9.46c-2.72,3.46-5.24,6.65-7.9,10.02,2.56,3.26,5.07,6.46,7.81,9.95h-9.45c-2.51-3.12-5.21-6.49-7.97-9.94,2.76-3.44,5.4-6.73,8.05-10.03Z"/>
      <path class="cls-1" d="M337.31,598.19h-9.48c-2.56-3.22-5.19-6.53-7.98-10.03,2.75-3.47,5.38-6.77,7.98-10.05h9.41c-2.74,3.52-5.2,6.67-7.84,10.05,2.49,3.16,5,6.34,7.9,10.03Z"/>
      <path class="cls-1" d="M276.33,588.17c2.73-3.45,5.33-6.73,7.93-10.02h9.48c-2.76,3.51-5.27,6.69-7.87,10,2.55,3.23,5.06,6.42,7.84,9.94h-9.48c-2.49-3.13-5.11-6.42-7.9-9.92Z"/>
      <path class="cls-1" d="M334.31,588.16c2.85-3.55,5.49-6.83,8.02-9.98h9.39c-2.72,3.49-5.13,6.6-7.76,9.98,2.49,3.19,4.97,6.36,7.77,9.94h-9.41c-2.48-3.08-5.12-6.36-8-9.95Z"/>
      <path class="cls-1" d="M298.67,597.99c-2.44-3.05-5.08-6.34-7.85-9.82,2.71-3.41,5.33-6.7,7.98-10.03h8.97c-1.74,3.94-5.31,6.33-7.21,10.21,2.35,3,4.78,6.11,7.54,9.64h-9.43Z"/>
      <path class="cls-1" d="M366.31,598.22h-9.4c-2.59-3.22-5.23-6.5-8.05-10.01,2.63-3.33,5.22-6.6,7.92-10.02h9.46c-2.72,3.45-5.23,6.64-7.85,9.96,2.58,3.28,5.1,6.47,7.93,10.07Z"/>
      <path class="cls-1" d="M264.68,598.18h-9.34c-2.53-3.16-5.24-6.53-8.05-10.03,2.77-3.47,5.4-6.76,8.01-10.02h9.39c-2.77,3.55-5.25,6.73-7.81,10.01,2.55,3.27,4.97,6.39,7.81,10.04Z"/>
      <path class="cls-1" d="M240.78,578.12h9.35c-2.7,3.48-5.15,6.62-7.8,10.03,2.49,3.18,4.99,6.37,7.75,9.91h-9.41c-2.46-3.09-5.08-6.39-7.87-9.89,2.74-3.45,5.36-6.75,7.97-10.04Z"/>
    </g>
  </g>
</svg>