<?xml version="1.0" encoding="UTF-8"?>
<svg id="Layer_2" xmlns="http://www.w3.org/2000/svg" viewBox="0 0 1080 331.98">
  <defs>
    <radialGradient id="blue-grad" cx="0" cy="0" r="15" gradientUnits="userSpaceOnUse" gradientTransform="translate(83.5 29.5) rotate(55.5816) scale(98.1899 130.602)">
      <stop stop-color="#7BE6C4"/>
      <stop offset="0.3" stop-color="#3B7CCB"/>
      <stop offset="1" stop-color="#AD3DB5"/>
    </radialGradient>
  </defs>
  <style>
    .cls-1 {
      fill: url(#blue-grad);
    }
  </style>
  <g id="Layer_1-2" data-name="Layer_1">
    <g>
      <path class="cls-1" d="M871.02,316.74c-3.82,5.08-7.59,10.09-11.38,15.13h-26.01c3.69-5.05,7-9.57,10.79-14.75h-19.92c-3.57,4.68-7.37,9.66-11.3,14.8h-25.73c3.72-5.1,7.04-9.67,10.84-14.88h-19.92c-3.7,4.86-7.5,9.85-11.37,14.92h-25.71c3.67-5.04,6.93-9.53,10.65-14.64-6.73-1.09-12.88-.35-19.42-.58-3.74,4.88-7.55,9.84-11.6,15.11h-25.7c3.61-4.95,6.9-9.47,10.83-14.86-3.13-.1-5.36-.24-7.59-.24-93.46-.01-186.92,0-280.37,0-125,0-250.01-.01-375.01.03-5.59,0-10.92-.41-15.8-3.63-8.34-5.51-12.91-13.15-12.92-23.11-.07-82.42-.07-164.83-.01-247.25,0-13.44,8.77-27.26,28.97-27.46,13.21-.13,26.42-.02,39.63-.02,1.36,0,2.73,0,4.34,0,4.04-5.14,8.03-10.21,12.01-15.27h282.09c-3.61,5.03-6.84,9.53-10.63,14.82,4.86.84,9.08.34,13.24.43,4.14.09,8.28.02,13.1.02,3.74-4.82,7.69-9.91,11.76-15.15h25.77c-3.7,5.11-6.96,9.63-10.69,14.8h19.65c3.63-4.72,7.55-9.84,11.45-14.9h25.8c-3.68,5.09-6.95,9.6-10.51,14.53,3.54,1.23,6.65.6,9.67.7,3.13.11,6.27.02,9.54.02,4.12-5.23,8.11-10.3,12.04-15.28h25.41c-3.68,5.08-6.94,9.6-10.52,14.55,3.51,1.24,6.61.6,9.62.71,3.13.11,6.28.02,9.59.02,4.09-5.19,8.08-10.26,12.05-15.3h25.44c-3.69,5.08-6.96,9.59-10.64,14.66,1.87.28,3.1.55,4.33.62,1.57.09,3.15.02,4.73.02,154.19,0,308.37,0,462.56-.01,5.15,0,10.24.35,14.95,2.6,10.44,4.98,15.68,13.33,15.68,24.88.02,65.46.01,130.92.01,196.38,0,16.56-.41,33.14.13,49.68.46,14.09-10.58,28.26-28.13,28.09-53.03-.5-106.07-.18-159.11-.18h-6.68ZM876.44,309.66h5.83c51.06,0,102.12,0,153.18,0,1.38,0,2.76.02,4.14-.06,7.04-.41,12.26-3.73,15.64-9.93,2.04-3.74,2.51-7.75,2.51-11.96-.05-81.03-.03-162.05-.03-243.08,0-.99.19-2.02-.04-2.95-.75-3-1.18-6.21-2.59-8.89-4.18-7.92-11.38-9.91-19.87-9.91-157.91.08-315.82.06-473.73.06h-5.14c-4.25,5.41-8.23,10.48-11.84,15.08h-25.51c3.73-5.12,7.02-9.63,10.78-14.78h-19.81c-4.01,5.11-7.99,10.18-11.6,14.78h-25.51c3.73-5.12,7.02-9.63,10.78-14.78h-19.82c-4,5.1-7.98,10.18-11.59,14.78h-25.49c3.69-5.12,6.95-9.65,10.66-14.79h-19.7c-4.06,5.16-8.04,10.23-11.61,14.76h-25.45c3.67-5.11,6.91-9.63,10.8-15.05h-26.75c-4.32,5.5-8.31,10.57-11.84,15.06H70.63c3.71-5.11,6.98-9.62,10.32-14.22-.95-.44-1.31-.75-1.66-.75-13.4,0-26.81-.22-40.21.12-8.68.22-15.4,6.69-16.84,15.4-.48,2.89-.74,5.85-.75,8.78-.04,79.45-.03,158.9-.03,238.35,0,1.38-.08,2.77.02,4.14.87,11.57,6.97,17.14,14.64,19.1,2.61.67,5.44.73,8.16.73,220.8.03,441.6.03,662.4.03,1.75,0,3.5,0,5.04,0,4.1-5.34,7.92-10.31,11.75-15.29h25.57c-3.74,5.13-7.17,9.85-10.93,15.02h19.92c3.93-5.07,7.88-10.17,11.48-14.82h25.56c-3.76,5.17-7.15,9.83-10.77,14.83h19.9c4.02-5.22,7.85-10.18,11.5-14.92h25.58c-3.78,5.18-7.22,9.89-10.94,14.98h19.96c3.94-5.13,7.76-10.1,11.59-15.08h25.56c-3.71,5.14-7.13,9.88-11.03,15.29Z"/>
      <path class="cls-1" d="M362.51,324.84c2.61,2.63,2.57,4.61-.04,6.85-1.42.07-3.16.22-4.91.22-105.24.01-210.47-.08-315.71.09-20.23.03-37.6-14.99-41.16-32.36-.35-1.72-.64-3.49-.65-5.24C0,272.11,0,249.84,0,227.57c0-.76.19-1.53.37-2.81h5.99c.17,2.39.45,4.48.45,6.57.04,19.71.04,39.41.04,59.12,0,15.12,7.79,25.07,20.92,31.36,5.04,2.41,10.5,3.04,16.07,3.04,77.84-.02,155.69-.01,233.53-.01,26.41,0,52.82,0,79.22,0,2.13,0,4.27,0,5.91,0Z"/>
      <path class="cls-1" d="M1073.21,202.13h5.93c.29,2.11.76,3.97.76,5.84.05,27.01.18,54.03-.02,81.04-.15,20.47-12.87,36.36-29.54,40.99-3.75,1.04-7.71,1.81-11.57,1.82-40.62.13-81.23.08-122.46.08-.86-.96-1.98-2.2-3.39-3.76,1.21-1.26,1.95-2.68,3.02-3,1.64-.49,3.51-.29,5.28-.29,37.86-.01,75.71.04,113.57-.04,8.35-.02,16.52-1.21,23.46-6.46,8.22-6.22,13.72-14.15,13.92-24.77.28-14.58.21-29.18.25-43.76.03-13.01-.03-26.03.04-39.04.02-2.71.46-5.41.75-8.63Z"/>
    </g>
  </g>
</svg>