<?xml version="1.0" encoding="UTF-8"?>
<svg id="Layer_2" xmlns="http://www.w3.org/2000/svg" viewBox="0 0 444.71 499.96">
  <defs>
    <radialGradient id="blue-grad" cx="0" cy="0" r="4.5" gradientUnits="userSpaceOnUse" gradientTransform="translate(83.5 29.5) rotate(55.5816) scale(98.1899 130.602)">
      <stop stop-color="#7BE6C4"/>
      <stop offset="0.5" stop-color="#3B7CCB"/>
      <stop offset="1" stop-color="#AD3DB5"/>
    </radialGradient>
  </defs>
  <style>
    .cls-1 {
      fill: url(#blue-grad);
    }
  </style>
  <g id="Layer_1-2" data-name="Layer_1">
    <g>
      <path class="cls-1" d="M33.11,137.56c20.05-19.87,40.53-40.18,61.49-60.96h-17.6c-21.6,21.6-43.16,43.16-65.04,65.04v12.47c4.7-3.86,9.03-7.41,13.77-11.31v21.25c-4.42,3.71-9.09,7.62-13.79,11.56v14.7c4.64-3.88,9.05-7.56,13.87-11.59v21.24c-4.45,3.75-9.2,7.74-13.8,11.62v9.28c4.66-3.85,8.94-7.39,13.1-10.83.36.07.5.06.6.13.08.06.15.2.15.31,0,43.86,0,87.72,0,131.81-4.55,3.86-9.19,7.81-13.96,11.86v30.17c-4.22,4.13-8.11,7.95-11.92,11.68V136.43c10.92-10.91,21.95-21.94,32.82-32.81v-43.34C53.09,40.15,73.38,20,93.49.04h133.22c-3.6,3.61-6.82,6.83-10.42,10.44h9.36c3.34-3.56,6.75-7.2,9.82-10.47h22c-3.59,3.59-6.81,6.82-10.43,10.44h14.84c3.32-3.49,6.68-7.02,9.89-10.4h21.54c-3.35,3.47-6.45,6.69-9.56,9.9.12.24.25.47.37.71h160.25c.12.23.23.47.35.7-3.61,3.7-7.22,7.4-10.84,11.12H88.64c-14.68,14.62-29.01,28.9-43.74,43.57v25.52c9.23-9.21,18.07-18.04,26.95-26.91h233.44c-3.56,3.6-7.21,7.29-11.56,11.69H111.4c-22.09,22.25-44.01,44.33-66.46,66.93v345.23c-3.82,3.7-7.56,7.32-11.83,11.46V137.56Z"/>
      <path class="cls-1" d="M133.54,218.16c-30.26.44-56.57-25.14-56.41-56.7.15-28.95,22.98-56.31,56.48-56.34,32.81-.03,56.66,26.34,56.61,56.96-.05,30.29-25.23,56.47-56.67,56.08ZM133.85,210.1c26.99.31,48.46-22.28,48.33-48.52-.14-28.14-22.84-48.59-48.88-48.38-26.85.22-48.09,21.72-48.13,48.36-.05,26.82,22.09,49.17,48.68,48.54Z"/>
      <path class="cls-1" d="M377.05,39.53c-3.31,2.79-6.62,5.57-9.92,8.34h-137.15c-1.72,1.87-3.49,3.78-5.28,5.71h-8.5c2.11-3.96,5.69-6.21,8.13-9.68-2.07-3.06-4.14-6.12-6.39-9.45h8.86c1.02,1.33,2.14,2.8,3.35,4.39h146.54l.35.69Z"/>
      <path class="cls-1" d="M185.07,34.27c2.26,3.35,4.34,6.42,6.61,9.78-3.06,3.3-6,6.47-8.84,9.53h-8.3c.44-2.45,2.5-3.47,3.75-5.02,1.24-1.53,2.69-2.89,4.21-4.5-2.17-3.2-4.24-6.26-6.5-9.6,3.11-.76,5.98-.43,9.07-.18Z"/>
      <path class="cls-1" d="M187.68,53.61c3.22-3.55,5.94-6.56,8.73-9.64-2.08-3.07-4.09-6.03-6.24-9.2,2.84-1.38,5.64-.53,8.65-.66,2.23,3.2,4.47,6.43,6.84,9.83-3.03,3.33-5.94,6.52-8.83,9.68h-9.15Z"/>
      <path class="cls-1" d="M135.9,43.92c-3.07,3.34-5.92,6.44-8.85,9.63h-9.05c3.07-3.41,5.77-6.4,8.61-9.56-2.05-3.07-4.08-6.12-6.34-9.49h9c2.01,2.85,4.21,5.98,6.63,9.42Z"/>
      <path class="cls-1" d="M210.32,43.92c-2.13-3.19-4.04-6.06-6.24-9.35h8.96c2,2.83,4.22,5.96,6.68,9.45-3.06,3.22-6.11,6.44-9.07,9.56h-8.84c3.05-3.47,5.7-6.48,8.51-9.67Z"/>
      <path class="cls-1" d="M148.12,34.44h9.06c2.1,3.04,4.27,6.19,6.56,9.52-3.04,3.34-5.96,6.55-8.8,9.67h-9.21c3.13-3.38,5.87-6.35,8.84-9.56-2.05-3.06-4.1-6.11-6.46-9.63Z"/>
      <path class="cls-1" d="M101.42,34.56c2.09,3,4.22,6.06,6.59,9.48-2.98,3.14-5.95,6.28-9,9.5h-8.81c2.99-3.39,5.65-6.41,8.46-9.6-2.04-3.06-4.01-6.02-6.23-9.37h9Z"/>
      <path class="cls-1" d="M106.18,34.42h9.08c2.14,3.08,4.31,6.22,6.62,9.54-3.12,3.4-6.04,6.6-8.75,9.56h-8.63c2.23-3.94,5.83-6.22,8.15-9.69-2.09-3.04-4.12-5.99-6.47-9.41Z"/>
      <path class="cls-1" d="M140.92,53.56h-8.83c3.03-3.47,5.68-6.5,8.42-9.62-2.03-3.08-3.99-6.05-6.2-9.41h8.96c2.02,2.94,4.19,6.08,6.55,9.51-3.12,3.34-6.08,6.51-8.9,9.52Z"/>
      <path class="cls-1" d="M168.47,43.92c-2.16-3.2-4.09-6.05-6.29-9.32h9.1c2.01,2.93,4.17,6.08,6.5,9.48-3.03,3.18-6.01,6.31-9.02,9.48h-8.78c3-3.41,5.66-6.42,8.5-9.64Z"/>
      <path class="cls-1" d="M93.65,154.98c1.86.44,3.74.88,5.72,1.34v10.63c-1.69.47-3.54.99-5.36,1.5-1.43-2.84-1.61-9.01-.36-13.47Z"/>
      <path class="cls-1" d="M173.55,154.93c1.3,3.71,1.34,9.66.14,13.49-1.84-.45-3.7-.9-5.66-1.37v-10.66c1.79-.47,3.55-.93,5.52-1.45Z"/>
      <path class="cls-1" d="M106.58,183.42c-1.44,1.38-2.76,2.65-4.23,4.06-3.34-3.1-5.13-7.06-7.01-11.62,2.15-.64,3.97-1.18,5.91-1.76,1.72,3.01,3.43,5.99,5.33,9.32Z"/>
      <path class="cls-1" d="M140.46,121.62c-.53,2.12-.98,3.88-1.43,5.69h-10.58c-.51-1.69-1.07-3.54-1.69-5.58,4.43-1.35,8.77-1.28,13.7-.11Z"/>
      <path class="cls-1" d="M165.15,187.68c-1.6-1.56-2.91-2.83-4.34-4.22,1.74-3.08,3.42-6.06,5.26-9.3,1.74.47,3.58.97,5.6,1.52-.94,4.71-3.65,8.17-6.52,12Z"/>
      <path class="cls-1" d="M155.48,134.52c-3.14-1.78-6.12-3.47-9.26-5.25.52-1.86,1.05-3.71,1.63-5.77,4.61,1.25,8.14,3.88,11.93,6.69-1.5,1.51-2.86,2.88-4.29,4.33Z"/>
      <path class="cls-1" d="M111.77,134.65c-1.25-1.49-2.48-2.97-3.84-4.6,3.26-2.9,7.06-5.02,11.58-6.69.6,2.09,1.12,3.93,1.66,5.79-3.07,1.8-6.03,3.53-9.39,5.49Z"/>
      <path class="cls-1" d="M146.18,194c3.2-1.81,6.1-3.45,9.11-5.15,1.34,1.41,2.69,2.83,4.15,4.36-3.29,2.63-6.78,5.14-11.48,6.57-.6-1.96-1.16-3.78-1.77-5.78Z"/>
      <path class="cls-1" d="M107.7,193.12c1.63-1.45,3.1-2.75,4.65-4.13,2.68,1.52,5.59,3.17,8.75,4.96-.46,1.74-.96,3.59-1.54,5.76-4.71-1.1-8.15-3.88-11.87-6.59Z"/>
      <path class="cls-1" d="M102.07,135.84c1.44,1.56,2.77,2.99,4.14,4.47-1.54,2.74-3.22,5.73-4.99,8.87-1.85-.59-3.68-1.17-5.64-1.79,1.39-4.6,3.73-8.27,6.49-11.55Z"/>
      <path class="cls-1" d="M160.87,139.8c1.4-1.4,2.72-2.71,4.19-4.18,3.18,3.46,5.19,7.33,6.8,11.76-1.96.64-3.71,1.21-5.65,1.84-1.73-3.04-3.42-6.02-5.34-9.41Z"/>
      <path class="cls-1" d="M139.06,196.09c.43,1.82.84,3.58,1.36,5.78-4.53.81-8.73.59-13.43.17.47-2.22.87-4.08,1.26-5.94h10.81Z"/>
    </g>
  </g>
</svg>