# File produced by Open Asset Import Library (http://www.assimp.sf.net)
# (assimp v5.0.1588609223)

mtllib result.mtl

# 64 vertex positions
v  225179.09 21920.045 -275006.38
v  216420.91 21870.811 -132378.52
v  225179.09 21870.811 -132378.52
v  216420.91 21920.045 -275006.38
v  225179.09 -21920.045 -132393.62
v  216420.91 -21920.045 -132393.62
v  216420.91 -21870.811 -275021.5
v  225179.09 -21870.811 -275021.5
v  50641.836 -21896.184 -132618.02
v  50641.836 21896.184 -136981.98
v  50641.836 -21894.672 -136997.09
v  50641.836 21894.672 -132602.91
v  225805.28 21896.184 -136981.98
v  225805.28 -21894.672 -136997.09
v  225805.28 21894.672 -132602.91
v  225805.28 -21896.184 -132618.02
v  -43645.199 21902.158 -202788.59
v  -52403.371 21831.152 2909.7188
v  -43645.199 21831.152 2909.7188
v  -52403.371 21902.158 -202788.59
v  -43645.199 -21959.703 2894.5938
v  -52403.371 -21959.703 2894.5938
v  -52403.371 -21888.697 -202803.72
v  -43645.199 -21888.697 -202803.72
v  42933.379 -21895.428 2209.9531
v  42933.379 21895.428 -137009.95
v  42933.379 -21895.436 -137009.95
v  42933.379 21895.436 2209.9531
v  51691.551 21895.428 -137009.95
v  51691.551 -21895.436 -137009.95
v  51691.551 21895.436 2209.9531
v  51691.551 -21895.428 2209.9531
v  -43790.863 -21896.184 2181.9846
v  -43790.863 21896.184 -2181.9846
v  -43790.863 -21894.672 -2197.1008
v  -43790.863 21894.672 2197.1008
v  43790.863 21896.184 -2181.9846
v  43790.863 -21894.672 -2197.1008
v  43790.863 21894.672 2197.1008
v  43790.863 -21896.184 2181.9846
v  -43186.797 -21896.184 -197624.89
v  -43186.797 21896.184 -201988.86
v  -43186.797 -21894.672 -202003.97
v  -43186.797 21894.672 -197609.78
v  129986.8 21896.184 -201988.86
v  129986.8 -21894.672 -202003.97
v  129986.8 21894.672 -197609.78
v  129986.8 -21896.184 -197624.89
v  120780.06 -21896.184 -270818
v  120780.06 21896.184 -275182
v  120780.06 -21894.672 -275197.09
v  120780.06 21894.672 -270802.91
v  225878.12 21896.184 -275182
v  225878.12 -21894.672 -275197.09
v  225878.12 21894.672 -270802.91
v  225878.12 -21896.184 -270818
v  124838.43 -21895.426 -201798.34
v  124838.43 21895.432 -275454.84
v  124838.43 -21895.428 -275454.84
v  124838.43 21895.438 -201798.34
v  129961.57 21895.432 -275454.84
v  129961.57 -21895.428 -275454.84
v  129961.57 21895.438 -201798.34
v  129961.57 -21895.426 -201798.34

# 0 UV coordinates

# 26 vertex normals
vn 0 21895.428 7.5580044
vn 0 -24.6166 71313.93
vn -4379.0864 0 0
vn 0 -21895.428 -7.5580044
vn 4379.0864 0 0
vn 0 24.6166 -71313.93
vn -87581.727 0 0
vn 0 0.75580043 -2189.5427
vn 87581.727 0 0
vn 0 -0.75580043 2189.5427
vn 0 -64.274452 186202.16
vn 0 64.274452 -186202.16
vn 0 -0.0030427477 -69609.953
vn 0 0.0030427477 69609.953
vn 0 -21895.432 0.0009570797
vn 0 21895.432 -0.0009570797
vn -43790.863 0 0
vn 43790.863 0 0
vn -86586.797 0 0
vn 86586.797 0 0
vn -52549.031 0 0
vn 52549.031 0 0
vn -2561.5713 0 -0
vn 0 -0.0050705932 -116001.65
vn 2561.5713 0 0
vn 0 0.0050705932 116001.65

# Mesh 'Scene' with 12 faces
g Scene
usemtl Marble
f  1//1 2//1 3//1
f  1//1 4//1 2//1
f  5//2 2//2 6//2
f  5//2 3//2 2//2
f  6//3 4//3 7//3
f  6//3 2//3 4//3
f  7//4 5//4 6//4
f  7//4 8//4 5//4
f  8//5 3//5 5//5
f  8//5 1//5 3//5
f  7//6 1//6 8//6
f  7//6 4//6 1//6

# Mesh 'Scene' with 12 faces
g Scene
usemtl Marble
f  9//7 10//7 11//7
f  9//7 12//7 10//7
f  11//8 13//8 14//8
f  11//8 10//8 13//8
f  14//9 15//9 16//9
f  14//9 13//9 15//9
f  16//10 12//10 9//10
f  16//10 15//10 12//10
f  11//4 16//4 9//4
f  11//4 14//4 16//4
f  13//1 12//1 15//1
f  13//1 10//1 12//1

# Mesh 'Scene' with 12 faces
g Scene
usemtl Marble
f  17//1 18//1 19//1
f  17//1 20//1 18//1
f  21//11 18//11 22//11
f  21//11 19//11 18//11
f  22//3 20//3 23//3
f  22//3 18//3 20//3
f  23//4 21//4 22//4
f  23//4 24//4 21//4
f  24//5 19//5 21//5
f  24//5 17//5 19//5
f  23//12 17//12 24//12
f  23//12 20//12 17//12

# Mesh 'Scene' with 12 faces
g Scene
usemtl Marble
f  25//3 26//3 27//3
f  25//3 28//3 26//3
f  27//13 29//13 30//13
f  27//13 26//13 29//13
f  30//5 31//5 32//5
f  30//5 29//5 31//5
f  32//14 28//14 25//14
f  32//14 31//14 28//14
f  27//15 32//15 25//15
f  27//15 30//15 32//15
f  29//16 28//16 31//16
f  29//16 26//16 28//16

# Mesh 'Scene' with 12 faces
g Scene
usemtl Marble
f  33//17 34//17 35//17
f  33//17 36//17 34//17
f  35//8 37//8 38//8
f  35//8 34//8 37//8
f  38//18 39//18 40//18
f  38//18 37//18 39//18
f  40//10 36//10 33//10
f  40//10 39//10 36//10
f  35//4 40//4 33//4
f  35//4 38//4 40//4
f  37//1 36//1 39//1
f  37//1 34//1 36//1

# Mesh 'Scene' with 12 faces
g Scene
usemtl Marble
f  41//19 42//19 43//19
f  41//19 44//19 42//19
f  43//8 45//8 46//8
f  43//8 42//8 45//8
f  46//20 47//20 48//20
f  46//20 45//20 47//20
f  48//10 44//10 41//10
f  48//10 47//10 44//10
f  43//4 48//4 41//4
f  43//4 46//4 48//4
f  45//1 44//1 47//1
f  45//1 42//1 44//1

# Mesh 'Scene' with 12 faces
g Scene
usemtl Marble
f  49//21 50//21 51//21
f  49//21 52//21 50//21
f  51//8 53//8 54//8
f  51//8 50//8 53//8
f  54//22 55//22 56//22
f  54//22 53//22 55//22
f  56//10 52//10 49//10
f  56//10 55//10 52//10
f  51//4 56//4 49//4
f  51//4 54//4 56//4
f  53//1 52//1 55//1
f  53//1 50//1 52//1

# Mesh 'Scene' with 12 faces
g Scene
usemtl Marble_005
f  57//23 58//23 59//23
f  57//23 60//23 58//23
f  59//24 61//24 62//24
f  59//24 58//24 61//24
f  62//25 63//25 64//25
f  62//25 61//25 63//25
f  64//26 60//26 57//26
f  64//26 63//26 60//26
f  59//15 64//15 57//15
f  59//15 62//15 64//15
f  61//16 60//16 63//16
f  61//16 58//16 60//16

