<svg width="150" height="105" viewBox="0 0 150 105" fill="none" xmlns="http://www.w3.org/2000/svg">
<path fill-rule="evenodd" clip-rule="evenodd" d="M4 72L4 17C4 9.8203 9.8203 4.00001 17 4.00001L133 4C140.18 4 146 9.8203 146 17V61.045C142.981 57.4664 138.512 55.1515 133.498 55.0072C133.827 53.3894 134 51.7149 134 50C134 36.1929 122.807 25 109 25C99.968 25 92.0546 29.7897 87.6614 36.9677C85.0407 35.7066 82.1029 35 79 35C67.9543 35 59 43.9543 59 55C59 55.0388 59.0001 55.0776 59.0003 55.1164C50.5538 56.1061 44 63.2877 44 72C44 77.215 46.3482 81.8816 50.045 85H17C9.8203 85 4 79.1797 4 72ZM60.99 89H17C7.61116 89 3.14722e-06 81.3888 3.14722e-06 72L0 17C-4.10399e-07 7.61117 7.61116 7.2967e-06 17 6.8863e-06L133 0C142.389 0 150 7.61116 150 17V72C150 72.0367 150 72.0733 150 72.1099C149.941 81.4482 142.352 89 133 89L123.731 89L127.385 97.7688C128.448 100.318 127.242 103.245 124.693 104.307C122.144 105.37 119.217 104.164 118.155 101.615L112.898 89H61C60.9967 89 60.9933 89 60.99 89Z" fill="url(#paint0_radial_21_8)"/>
<defs>
<radialGradient id="paint0_radial_21_8" cx="0" cy="0" r="1" gradientUnits="userSpaceOnUse" gradientTransform="translate(83.5 29.5) rotate(55.5816) scale(98.1899 130.602)">
<stop stop-color="#7BE6C4"/>
<stop offset="0.7" stop-color="#3B7CCB"/>
<stop offset="1" stop-color="#AD3DB5"/>
</radialGradient>
</defs>
</svg>